<?xml version="1.0" encoding="UTF-8" standalone="no"?>
<!-- Created with Inkscape (http://www.inkscape.org/) -->

<svg
   xmlns:dc="http://purl.org/dc/elements/1.1/"
   xmlns:cc="http://creativecommons.org/ns#"
   xmlns:rdf="http://www.w3.org/1999/02/22-rdf-syntax-ns#"
   xmlns:svg="http://www.w3.org/2000/svg"
   xmlns="http://www.w3.org/2000/svg"
   xmlns:sodipodi="http://sodipodi.sourceforge.net/DTD/sodipodi-0.dtd"
   xmlns:inkscape="http://www.inkscape.org/namespaces/inkscape"
   width="800"
   height="800"
   viewBox="0 0 211.66667 211.66667"
   version="1.1"
   id="svg8"
   inkscape:version="0.92.4 (5da689c313, 2019-01-14)"
   sodipodi:docname="logo.svg">
  <defs
     id="defs2" />
  <sodipodi:namedview
     id="base"
     pagecolor="#ffffff"
     bordercolor="#666666"
     borderopacity="1.0"
     inkscape:pageopacity="0.0"
     inkscape:pageshadow="2"
     inkscape:zoom="0.99"
     inkscape:cx="219.83247"
     inkscape:cy="488.6136"
     inkscape:document-units="mm"
     inkscape:current-layer="layer1"
     showgrid="true"
     units="px"
     inkscape:window-width="2633"
     inkscape:window-height="1628"
     inkscape:window-x="-5"
     inkscape:window-y="11"
     inkscape:window-maximized="0">
    <inkscape:grid
       type="xygrid"
       id="grid3719" />
  </sodipodi:namedview>
  <metadata
     id="metadata5">
    <rdf:RDF>
      <cc:Work
         rdf:about="">
        <dc:format>image/svg+xml</dc:format>
        <dc:type
           rdf:resource="http://purl.org/dc/dcmitype/StillImage" />
        <dc:title></dc:title>
      </cc:Work>
    </rdf:RDF>
  </metadata>
  <g
     inkscape:label="Layer 1"
     inkscape:groupmode="layer"
     id="layer1"
     transform="translate(0,-85.33334)"
     style="display:none">
    <rect
       id="rect3721"
       width="164.56277"
       height="91.814545"
       x="23.41621"
       y="162.46703"
       style="fill:#000000;fill-opacity:1;stroke:#000000;stroke-width:23.3968792;stroke-linejoin:round;stroke-miterlimit:4;stroke-dasharray:none;stroke-opacity:1" />
  </g>
  <g
     inkscape:groupmode="layer"
     id="layer4"
     inkscape:label="merged">
    <rect
       id="rect3721-7"
       width="164.56277"
       height="91.814545"
       x="23.416208"
       y="77.13369"
       style="fill:#000000;fill-opacity:1;stroke:#000000;stroke-width:23.39688301;stroke-linejoin:round;stroke-miterlimit:4;stroke-dasharray:none;stroke-opacity:1" />
    <path
       style="fill:#000000;fill-opacity:1;stroke:#000000;stroke-width:2.27396178;stroke-linejoin:round;stroke-miterlimit:4;stroke-dasharray:none;stroke-opacity:1"
       id="path4541-4"
       d="m 106.56257,68.420402 c -0.85337,-0.607314 -1.67163,-1.243931 -2.48531,-1.880873 -0.68402,-0.530905 -1.25016,-1.131517 -1.92149,-1.669841 -0.57917,-0.436393 -1.05902,-0.93386 -1.5786,-1.407067 -0.44847,-0.356693 -0.654882,-0.810837 -0.909432,-1.248963 -0.18311,-0.270878 -0.26896,-0.570667 -0.45514,-0.840637 -0.0651,-0.09437 -0.15669,-0.17776 -0.22336,-0.271521 -0.19598,-0.275624 -0.32234,-0.528952 -0.48039,-0.818107 -0.39372,-0.75369 -0.7677,-1.509239 -1.07073,-2.285783 -0.26553,-0.712113 -0.45813,-1.43659 -0.54741,-2.172002 -0.0672,-0.718463 -0.0753,-1.438889 -0.0787,-2.158746 -5.3e-4,-0.659098 0.002,-1.318194 0.003,-1.977292 -0.0591,-0.460923 0.0846,-0.889839 0.2649,-1.325258 0.43584,-0.736288 1.14259,-1.361046 1.81193,-1.986772 0.79067,-0.739135 1.735152,-1.364525 2.707222,-1.968757 1.57509,-0.969092 3.36477,-1.726999 5.19991,-2.395836 0.74812,-0.206529 1.46426,-0.467564 2.20006,-0.697372 0.94332,-0.270215 1.91462,-0.476498 2.89802,-0.64951 1.36535,-0.286535 2.73815,-0.5474 4.11042,-0.815167 1.62945,-0.382325 3.29179,-0.678874 4.88234,-1.144615 0.65832,-0.228547 1.36373,-0.3733 2.03622,-0.573521 0.61313,-0.182548 1.21156,-0.402169 1.82147,-0.592095 0.21883,-0.06373 0.43891,-0.125145 0.65647,-0.191197 0.5394,-0.163763 1.11667,-0.320018 1.63064,-0.525286 0.26418,-0.10551 1.03864,-0.445677 0.77544,-0.338841 -0.52766,0.21419 -1.04601,0.440651 -1.56902,0.660976 1.50447,-0.662318 2.92668,-1.416747 4.33969,-2.179096 0.7972,-0.530734 1.58982,-1.126015 2.07216,-1.845785 0.10803,-0.161203 0.19002,-0.33123 0.28504,-0.496844 0.58371,-1.188058 0.86995,-2.508488 0.92415,-3.771178 0.0145,-0.336831 -0.002,-0.674 -0.003,-1.011 -0.0326,-0.922011 -0.082,-1.851864 -0.29935,-2.762525 -0.20365,-0.853316 -0.55066,-1.683476 -0.90094,-2.508214 -0.67728,-1.524712 -1.55062,-2.993838 -2.45185,-4.451554 -0.439,-0.735351 -0.21944,-0.378827 -0.65707,-1.070131 0,0 2.46698,-1.031314 2.46698,-1.031314 v 0 c 0.44043,0.69454 0.22046,0.33743 0.6584,1.071842 0.90582,1.465544 1.78577,2.941764 2.46881,4.474093 0.35738,0.834772 0.71145,1.676215 0.92382,2.539642 0.22578,0.917983 0.28041,1.856424 0.31624,2.786593 0.004,0.341595 0.0234,0.683285 0.012,1.02479 -0.0186,0.554173 -0.10738,1.129549 -0.21271,1.677852 -0.0953,0.49617 -0.22554,1.090228 -0.40701,1.577629 -0.0727,0.19533 -0.1771,0.383462 -0.26566,0.575193 -0.224,0.429769 -0.26826,0.574526 -0.58451,0.960822 -0.45527,0.556093 -1.09358,1.033073 -1.71077,1.488444 -1.41092,0.767083 -2.83065,1.526495 -4.32953,2.198313 -1.35411,0.581484 -2.67738,1.205457 -4.07212,1.731941 -0.73709,0.278238 -1.53742,0.462618 -2.29131,0.712559 -1.27939,0.403915 -2.55964,0.800461 -3.86352,1.160146 -1.6035,0.444506 -3.26563,0.754545 -4.90191,1.125973 -1.37459,0.262282 -2.74173,0.541404 -4.11303,0.812655 -0.97413,0.181512 -1.9399,0.392086 -2.86888,0.67719 -0.72898,0.237718 -1.46012,0.471265 -2.18981,0.706893 -0.9958,0.37693 -1.09449,0.422092 1.53734,-0.69255 0.15283,-0.06473 -0.29764,0.139295 -0.44503,0.210582 -0.50197,0.24279 -0.99048,0.500438 -1.45057,0.785479 -0.70197,0.430718 -1.41835,0.855967 -2.03977,1.351997 -0.11681,0.09324 -0.2186,0.196231 -0.33225,0.291576 -0.11613,0.09741 -0.23795,0.191045 -0.35692,0.286568 -0.66843,0.609576 -1.33821,1.225981 -1.856822,1.913117 -0.16482,0.421659 -0.37899,0.821121 -0.3008,1.271294 -0.002,0.658815 -0.004,1.317628 -0.004,1.976448 0.002,0.714814 0.008,1.43011 0.0683,2.143805 0.075,0.723548 0.26461,1.435267 0.52131,2.135799 0.296822,0.77067 0.666912,1.519478 1.056572,2.266852 0.13922,0.257 0.28212,0.541922 0.4576,0.788532 0.0731,0.102751 0.17212,0.194752 0.24383,0.298032 0.18721,0.269621 0.27289,0.567865 0.45404,0.839187 0.24633,0.420481 0.43485,0.858777 0.87073,1.199671 0.51295,0.471649 0.99569,0.961734 1.5694,1.395783 0.66671,0.539721 1.23495,1.138063 1.91924,1.667113 0.81341,0.634619 1.62899,1.269855 2.48116,1.875838 0,0 -2.41696,1.094031 -2.41696,1.094031 z"
       inkscape:connector-curvature="0" />
    <rect
       style="fill:#ffffff;fill-opacity:1;stroke:#ffffff;stroke-width:1.40213025;stroke-linejoin:round;stroke-miterlimit:4;stroke-dasharray:none;stroke-opacity:1"
       id="rect4544-9"
       width="15.671467"
       height="14.552081"
       x="26.661867"
       y="82.550003" />
    <rect
       style="fill:#ffffff;fill-opacity:1;stroke:#ffffff;stroke-width:1.40213025;stroke-linejoin:round;stroke-miterlimit:4;stroke-dasharray:none;stroke-opacity:1"
       id="rect4544-7-8"
       width="15.671467"
       height="14.552081"
       x="50.474354"
       y="82.550003" />
    <rect
       style="fill:#ffffff;fill-opacity:1;stroke:#ffffff;stroke-width:1.40213025;stroke-linejoin:round;stroke-miterlimit:4;stroke-dasharray:none;stroke-opacity:1"
       id="rect4544-7-9-7"
       width="15.671467"
       height="14.552081"
       x="74.286873"
       y="82.550003" />
    <rect
       style="fill:#ffffff;fill-opacity:1;stroke:#ffffff;stroke-width:1.40213025;stroke-linejoin:round;stroke-miterlimit:4;stroke-dasharray:none;stroke-opacity:1"
       id="rect4544-7-7-6"
       width="15.671467"
       height="14.552081"
       x="98.302902"
       y="82.550003" />
    <rect
       style="fill:#ffffff;fill-opacity:1;stroke:#ffffff;stroke-width:1.40213025;stroke-linejoin:round;stroke-miterlimit:4;stroke-dasharray:none;stroke-opacity:1"
       id="rect4544-7-4-5"
       width="15.671467"
       height="14.552081"
       x="122.11541"
       y="82.550003" />
    <rect
       style="fill:#ffffff;fill-opacity:1;stroke:#ffffff;stroke-width:1.40213025;stroke-linejoin:round;stroke-miterlimit:4;stroke-dasharray:none;stroke-opacity:1"
       id="rect4544-7-75-0"
       width="15.671467"
       height="14.552081"
       x="145.92789"
       y="82.550003" />
    <rect
       style="fill:#ffffff;fill-opacity:1;stroke:#ffffff;stroke-width:1.40213025;stroke-linejoin:round;stroke-miterlimit:4;stroke-dasharray:none;stroke-opacity:1"
       id="rect4544-7-2-9"
       width="15.671467"
       height="14.552081"
       x="169.74042"
       y="82.550003" />
    <rect
       style="fill:#ffffff;fill-opacity:1;stroke:#ffffff;stroke-width:1.40213025;stroke-linejoin:round;stroke-miterlimit:4;stroke-dasharray:none;stroke-opacity:1"
       id="rect4544-7-0-2"
       width="15.671467"
       height="14.552081"
       x="31.953524"
       y="105.03962" />
    <rect
       style="fill:#ffffff;fill-opacity:1;stroke:#ffffff;stroke-width:1.40213025;stroke-linejoin:round;stroke-miterlimit:4;stroke-dasharray:none;stroke-opacity:1"
       id="rect4544-7-9-9-3"
       width="15.671467"
       height="14.552081"
       x="55.766026"
       y="105.03962" />
    <rect
       style="fill:#ffffff;fill-opacity:1;stroke:#ffffff;stroke-width:1.40213025;stroke-linejoin:round;stroke-miterlimit:4;stroke-dasharray:none;stroke-opacity:1"
       id="rect4544-7-7-2-2"
       width="15.671467"
       height="14.552081"
       x="79.782066"
       y="105.03962" />
    <rect
       style="fill:#ffffff;fill-opacity:1;stroke:#ffffff;stroke-width:1.40213025;stroke-linejoin:round;stroke-miterlimit:4;stroke-dasharray:none;stroke-opacity:1"
       id="rect4544-7-4-7-8"
       width="15.671467"
       height="14.552081"
       x="103.59456"
       y="105.03962" />
    <rect
       style="fill:#ffffff;fill-opacity:1;stroke:#ffffff;stroke-width:1.40213025;stroke-linejoin:round;stroke-miterlimit:4;stroke-dasharray:none;stroke-opacity:1"
       id="rect4544-7-75-2-2"
       width="15.671467"
       height="14.552081"
       x="127.40703"
       y="105.03962" />
    <rect
       style="fill:#ffffff;fill-opacity:1;stroke:#ffffff;stroke-width:1.40213025;stroke-linejoin:round;stroke-miterlimit:4;stroke-dasharray:none;stroke-opacity:1"
       id="rect4544-7-2-8-4"
       width="15.671467"
       height="14.552081"
       x="151.21954"
       y="105.03962" />
    <rect
       style="fill:#ffffff;fill-opacity:1;stroke:#ffffff;stroke-width:1.40213025;stroke-linejoin:round;stroke-miterlimit:4;stroke-dasharray:none;stroke-opacity:1"
       id="rect4544-4-6"
       width="15.671467"
       height="14.552081"
       x="41.010406"
       y="126.20647" />
    <rect
       style="fill:#ffffff;fill-opacity:1;stroke:#ffffff;stroke-width:1.40213025;stroke-linejoin:round;stroke-miterlimit:4;stroke-dasharray:none;stroke-opacity:1"
       id="rect4544-7-6-4"
       width="15.671467"
       height="14.552081"
       x="64.822914"
       y="126.20647" />
    <rect
       style="fill:#ffffff;fill-opacity:1;stroke:#ffffff;stroke-width:1.40213025;stroke-linejoin:round;stroke-miterlimit:4;stroke-dasharray:none;stroke-opacity:1"
       id="rect4544-7-9-0-3"
       width="15.671467"
       height="14.552081"
       x="88.635429"
       y="126.20647" />
    <rect
       style="fill:#ffffff;fill-opacity:1;stroke:#ffffff;stroke-width:1.40213025;stroke-linejoin:round;stroke-miterlimit:4;stroke-dasharray:none;stroke-opacity:1"
       id="rect4544-7-7-9-6"
       width="15.671467"
       height="14.552081"
       x="112.65146"
       y="126.20647" />
    <rect
       style="fill:#ffffff;fill-opacity:1;stroke:#ffffff;stroke-width:1.40213025;stroke-linejoin:round;stroke-miterlimit:4;stroke-dasharray:none;stroke-opacity:1"
       id="rect4544-7-4-6-5"
       width="15.671467"
       height="14.552081"
       x="136.46396"
       y="126.20647" />
    <rect
       style="fill:#ffffff;fill-opacity:1;stroke:#ffffff;stroke-width:1.40213025;stroke-linejoin:round;stroke-miterlimit:4;stroke-dasharray:none;stroke-opacity:1"
       id="rect4544-7-75-5-9"
       width="15.671467"
       height="14.552081"
       x="160.27644"
       y="126.20647" />
    <rect
       style="fill:#ffffff;fill-opacity:1;stroke:#ffffff;stroke-width:3.4806571;stroke-linejoin:round;stroke-miterlimit:4;stroke-dasharray:none;stroke-opacity:1"
       id="rect4544-7-6-0-1"
       width="96.572914"
       height="14.552081"
       x="58.208324"
       y="151.34187" />
  </g>
  <g
     inkscape:groupmode="layer"
     id="layer2"
     inkscape:label="Layer 2"
     sodipodi:insensitive="true"
     style="display:none">
    <path
       style="fill:#000000;fill-opacity:1;stroke:#000000;stroke-width:2.27396178;stroke-linejoin:round;stroke-miterlimit:4;stroke-dasharray:none;stroke-opacity:1"
       id="path4541"
       d="m 106.56258,68.420401 c -0.85337,-0.607315 -1.67163,-1.243935 -2.48531,-1.880875 -0.68402,-0.530903 -1.25016,-1.131516 -1.92149,-1.66984 -0.57917,-0.436394 -1.05902,-0.93386 -1.5786,-1.407066 -0.44848,-0.356694 -0.654886,-0.810841 -0.909439,-1.248963 -0.183107,-0.27088 -0.268959,-0.570671 -0.455139,-0.840638 -0.06508,-0.09437 -0.156686,-0.17776 -0.223355,-0.27152 -0.195983,-0.275625 -0.322345,-0.528953 -0.480394,-0.818107 -0.393724,-0.753692 -0.767699,-1.509239 -1.070726,-2.285783 -0.265533,-0.712113 -0.458134,-1.436593 -0.547413,-2.172006 -0.0672,-0.71846 -0.07526,-1.438885 -0.07867,-2.158745 -5.29e-4,-0.659097 0.0019,-1.318192 0.0034,-1.977289 -0.05911,-0.460924 0.08456,-0.88984 0.264906,-1.32526 0.435835,-0.736287 1.142588,-1.361044 1.811925,-1.986771 0.790671,-0.739134 1.735155,-1.364526 2.707235,-1.968756 1.57508,-0.969092 3.36477,-1.726999 5.19991,-2.395836 0.74812,-0.206533 1.46425,-0.467565 2.20006,-0.697374 0.94331,-0.270215 1.91462,-0.476498 2.89801,-0.64951 1.36536,-0.286535 2.73816,-0.5474 4.11042,-0.815167 1.62945,-0.382325 3.29179,-0.678874 4.88234,-1.144615 0.65832,-0.228547 1.36373,-0.3733 2.03622,-0.573521 0.61313,-0.182548 1.21155,-0.402169 1.82147,-0.592095 0.21883,-0.06373 0.43891,-0.125145 0.65647,-0.191197 0.5394,-0.163763 1.11667,-0.320018 1.63064,-0.525286 0.26418,-0.10551 1.03864,-0.445677 0.77544,-0.338841 -0.52766,0.21419 -1.04602,0.440651 -1.56903,0.660976 1.50448,-0.662318 2.92669,-1.416747 4.3397,-2.179096 0.7972,-0.530734 1.58982,-1.126015 2.07216,-1.845785 0.10803,-0.161203 0.19002,-0.33123 0.28503,-0.496844 0.58372,-1.188058 0.86995,-2.508488 0.92416,-3.771178 0.0145,-0.336831 -0.002,-0.674 -0.003,-1.011 -0.0326,-0.922011 -0.082,-1.851864 -0.29935,-2.762525 -0.20365,-0.853316 -0.55066,-1.683476 -0.90094,-2.508214 -0.67728,-1.524712 -1.55062,-2.993837 -2.45184,-4.451554 -0.43901,-0.73535 -0.21944,-0.378826 -0.65708,-1.07013 0,0 2.46698,-1.031314 2.46698,-1.031314 v 0 c 0.44043,0.69454 0.22046,0.33743 0.6584,1.071842 0.90582,1.465543 1.78577,2.941763 2.46881,4.474092 0.35738,0.834773 0.71145,1.676215 0.92382,2.539642 0.22578,0.917983 0.28041,1.856424 0.31624,2.786593 0.004,0.341595 0.0234,0.683285 0.012,1.02479 -0.0186,0.554173 -0.10738,1.129549 -0.21271,1.677852 -0.0953,0.49617 -0.22554,1.090228 -0.40701,1.577629 -0.0727,0.19533 -0.1771,0.383462 -0.26566,0.575193 -0.224,0.429769 -0.26826,0.574526 -0.58451,0.960822 -0.45527,0.556093 -1.09358,1.033073 -1.71077,1.488444 -1.41092,0.767083 -2.83065,1.526495 -4.32953,2.198313 -1.35411,0.581484 -2.67738,1.205457 -4.07212,1.731941 -0.73709,0.278238 -1.53742,0.462618 -2.29131,0.712559 -1.27939,0.403915 -2.55964,0.800461 -3.86352,1.160146 -1.6035,0.444506 -3.26563,0.754545 -4.90191,1.125973 -1.37459,0.262284 -2.74172,0.541405 -4.11302,0.812656 -0.97413,0.181511 -1.9399,0.392087 -2.86888,0.677191 -0.72898,0.237716 -1.46012,0.471264 -2.18981,0.706891 -0.9958,0.376931 -1.09449,0.42209 1.53734,-0.692548 0.15283,-0.06473 -0.29764,0.139295 -0.44503,0.210581 -0.50197,0.24279 -0.99048,0.500435 -1.45057,0.785478 -0.70197,0.430719 -1.41835,0.855967 -2.03977,1.351999 -0.11681,0.09324 -0.2186,0.196231 -0.33225,0.291576 -0.11613,0.09741 -0.23795,0.191044 -0.35692,0.286566 -0.66843,0.609577 -1.33822,1.225983 -1.856829,1.913119 -0.164819,0.421657 -0.378989,0.821121 -0.300805,1.271292 -0.0016,0.658816 -0.0039,1.317629 -0.004,1.976447 0.0019,0.714817 0.0079,1.430112 0.06826,2.143806 0.07499,0.723546 0.264616,1.435268 0.521312,2.135801 0.296832,0.770668 0.666922,1.519477 1.056582,2.266851 0.13922,0.257001 0.28212,0.54192 0.4576,0.78853 0.0731,0.10275 0.17212,0.194751 0.24383,0.298035 0.18721,0.269621 0.27289,0.567864 0.45404,0.839183 0.24633,0.420484 0.43485,0.85878 0.87073,1.199673 0.51295,0.471648 0.99569,0.961735 1.5694,1.395782 0.66671,0.539721 1.23495,1.138063 1.91924,1.667113 0.81341,0.634621 1.62899,1.269857 2.48116,1.87584 0,0 -2.41696,1.094032 -2.41696,1.094032 z"
       inkscape:connector-curvature="0" />
  </g>
  <g
     inkscape:groupmode="layer"
     id="layer3"
     inkscape:label="Layer 3"
     style="display:none">
    <rect
       style="fill:#ffffff;fill-opacity:1;stroke:#ffffff;stroke-width:1.40213025;stroke-linejoin:round;stroke-miterlimit:4;stroke-dasharray:none;stroke-opacity:1"
       id="rect4544"
       width="15.671465"
       height="14.552081"
       x="26.661869"
       y="82.549988" />
    <rect
       style="fill:#ffffff;fill-opacity:1;stroke:#ffffff;stroke-width:1.40213025;stroke-linejoin:round;stroke-miterlimit:4;stroke-dasharray:none;stroke-opacity:1"
       id="rect4544-7"
       width="15.671466"
       height="14.552081"
       x="50.474369"
       y="82.549988" />
    <rect
       style="fill:#ffffff;fill-opacity:1;stroke:#ffffff;stroke-width:1.40213025;stroke-linejoin:round;stroke-miterlimit:4;stroke-dasharray:none;stroke-opacity:1"
       id="rect4544-7-9"
       width="15.671467"
       height="14.552081"
       x="74.286873"
       y="82.549988" />
    <rect
       style="fill:#ffffff;fill-opacity:1;stroke:#ffffff;stroke-width:1.40213025;stroke-linejoin:round;stroke-miterlimit:4;stroke-dasharray:none;stroke-opacity:1"
       id="rect4544-7-7"
       width="15.671467"
       height="14.552081"
       x="98.30291"
       y="82.549988" />
    <rect
       style="fill:#ffffff;fill-opacity:1;stroke:#ffffff;stroke-width:1.40213025;stroke-linejoin:round;stroke-miterlimit:4;stroke-dasharray:none;stroke-opacity:1"
       id="rect4544-7-4"
       width="15.671467"
       height="14.552081"
       x="122.11541"
       y="82.549988" />
    <rect
       style="fill:#ffffff;fill-opacity:1;stroke:#ffffff;stroke-width:1.40213025;stroke-linejoin:round;stroke-miterlimit:4;stroke-dasharray:none;stroke-opacity:1"
       id="rect4544-7-75"
       width="15.671467"
       height="14.552081"
       x="145.9279"
       y="82.549988" />
    <rect
       style="fill:#ffffff;fill-opacity:1;stroke:#ffffff;stroke-width:1.40213025;stroke-linejoin:round;stroke-miterlimit:4;stroke-dasharray:none;stroke-opacity:1"
       id="rect4544-7-2"
       width="15.671467"
       height="14.552081"
       x="169.7404"
       y="82.549988" />
    <rect
       style="fill:#ffffff;fill-opacity:1;stroke:#ffffff;stroke-width:1.40213025;stroke-linejoin:round;stroke-miterlimit:4;stroke-dasharray:none;stroke-opacity:1"
       id="rect4544-7-0"
       width="15.671467"
       height="14.552081"
       x="31.953529"
       y="105.03962" />
    <rect
       style="fill:#ffffff;fill-opacity:1;stroke:#ffffff;stroke-width:1.40213025;stroke-linejoin:round;stroke-miterlimit:4;stroke-dasharray:none;stroke-opacity:1"
       id="rect4544-7-9-9"
       width="15.671467"
       height="14.552081"
       x="55.766037"
       y="105.03962" />
    <rect
       style="fill:#ffffff;fill-opacity:1;stroke:#ffffff;stroke-width:1.40213025;stroke-linejoin:round;stroke-miterlimit:4;stroke-dasharray:none;stroke-opacity:1"
       id="rect4544-7-7-2"
       width="15.671467"
       height="14.552081"
       x="79.782066"
       y="105.03962" />
    <rect
       style="fill:#ffffff;fill-opacity:1;stroke:#ffffff;stroke-width:1.40213025;stroke-linejoin:round;stroke-miterlimit:4;stroke-dasharray:none;stroke-opacity:1"
       id="rect4544-7-4-7"
       width="15.671467"
       height="14.552081"
       x="103.59457"
       y="105.03962" />
    <rect
       style="fill:#ffffff;fill-opacity:1;stroke:#ffffff;stroke-width:1.40213025;stroke-linejoin:round;stroke-miterlimit:4;stroke-dasharray:none;stroke-opacity:1"
       id="rect4544-7-75-2"
       width="15.671467"
       height="14.552081"
       x="127.40704"
       y="105.03962" />
    <rect
       style="fill:#ffffff;fill-opacity:1;stroke:#ffffff;stroke-width:1.40213025;stroke-linejoin:round;stroke-miterlimit:4;stroke-dasharray:none;stroke-opacity:1"
       id="rect4544-7-2-8"
       width="15.671467"
       height="14.552081"
       x="151.21956"
       y="105.03962" />
    <rect
       style="fill:#ffffff;fill-opacity:1;stroke:#ffffff;stroke-width:1.40213025;stroke-linejoin:round;stroke-miterlimit:4;stroke-dasharray:none;stroke-opacity:1"
       id="rect4544-4"
       width="15.671466"
       height="14.552081"
       x="41.010418"
       y="126.20644" />
    <rect
       style="fill:#ffffff;fill-opacity:1;stroke:#ffffff;stroke-width:1.40213025;stroke-linejoin:round;stroke-miterlimit:4;stroke-dasharray:none;stroke-opacity:1"
       id="rect4544-7-6"
       width="15.671467"
       height="14.552081"
       x="64.822914"
       y="126.20644" />
    <rect
       style="fill:#ffffff;fill-opacity:1;stroke:#ffffff;stroke-width:1.40213025;stroke-linejoin:round;stroke-miterlimit:4;stroke-dasharray:none;stroke-opacity:1"
       id="rect4544-7-9-0"
       width="15.671467"
       height="14.552081"
       x="88.635422"
       y="126.20644" />
    <rect
       style="fill:#ffffff;fill-opacity:1;stroke:#ffffff;stroke-width:1.40213025;stroke-linejoin:round;stroke-miterlimit:4;stroke-dasharray:none;stroke-opacity:1"
       id="rect4544-7-7-9"
       width="15.671467"
       height="14.552081"
       x="112.65146"
       y="126.20644" />
    <rect
       style="fill:#ffffff;fill-opacity:1;stroke:#ffffff;stroke-width:1.40213025;stroke-linejoin:round;stroke-miterlimit:4;stroke-dasharray:none;stroke-opacity:1"
       id="rect4544-7-4-6"
       width="15.671467"
       height="14.552081"
       x="136.46396"
       y="126.20644" />
    <rect
       style="fill:#ffffff;fill-opacity:1;stroke:#ffffff;stroke-width:1.40213025;stroke-linejoin:round;stroke-miterlimit:4;stroke-dasharray:none;stroke-opacity:1"
       id="rect4544-7-75-5"
       width="15.671467"
       height="14.552081"
       x="160.27643"
       y="126.20644" />
    <rect
       style="fill:#ffffff;fill-opacity:1;stroke:#ffffff;stroke-width:3.48065686;stroke-linejoin:round;stroke-miterlimit:4;stroke-dasharray:none;stroke-opacity:1"
       id="rect4544-7-6-0"
       width="96.572914"
       height="14.552081"
       x="58.208332"
       y="151.34187" />
  </g>
</svg>
