<svg xmlns="http://www.w3.org/2000/svg" width="800" height="800" viewBox="0 0 211.66667 211.66667"><g stroke-linejoin="round"><path stroke="#000" stroke-width="23.397" d="M23.42 77.13h164.56v91.82H23.42z"/><path stroke="#000" stroke-width="2.274" d="M106.56 68.42c-.85-.6-1.67-1.24-2.48-1.88-.7-.53-1.25-1.13-1.92-1.67-.58-.44-1.06-.93-1.58-1.4-.45-.36-.66-.82-.9-1.26-.2-.26-.28-.56-.47-.83-.05-.1-.14-.17-.2-.27-.2-.27-.33-.53-.5-.82-.38-.75-.76-1.5-1.06-2.28-.27-.7-.46-1.44-.55-2.17-.08-.72-.08-1.44-.1-2.16 0-.66 0-1.32.02-1.98-.06-.47.08-.9.26-1.34.44-.73 1.14-1.36 1.8-1.98.8-.74 1.75-1.37 2.72-1.97 1.57-.96 3.36-1.72 5.2-2.4.75-.2 1.46-.45 2.2-.68.94-.27 1.9-.48 2.9-.65 1.36-.3 2.74-.55 4.1-.82 1.64-.38 3.3-.68 4.9-1.14.65-.22 1.35-.37 2.03-.57.6-.18 1.2-.4 1.82-.6.22-.05.44-.1.65-.18.54-.16 1.12-.32 1.63-.53.27-.1 1.04-.44.78-.33-.52.2-1.04.43-1.56.65 1.5-.67 2.93-1.42 4.34-2.18.8-.53 1.6-1.13 2.07-1.85.1-.16.2-.33.3-.5.57-1.18.86-2.5.9-3.77.03-.33 0-.67 0-1-.02-.93-.07-1.86-.3-2.77-.2-.85-.54-1.68-.9-2.5-.67-1.53-1.54-3-2.44-4.46-.43-.74-.2-.38-.65-1.07 0 0 2.47-1.03 2.47-1.03.44.7.22.34.66 1.07.9 1.46 1.78 2.93 2.46 4.46.36.84.72 1.68.93 2.54.22.92.28 1.86.3 2.8.02.33.04.67.03 1.02-.02.55-.1 1.13-.22 1.67-.1.5-.22 1.08-.4 1.57-.08.2-.18.38-.27.58-.2.43-.26.57-.57.96-.46.56-1.1 1.04-1.7 1.5-1.43.76-2.85 1.52-4.34 2.2-1.37.58-2.7 1.2-4.1 1.73-.72.27-1.52.46-2.28.7-1.28.4-2.56.8-3.86 1.17-1.6.44-3.27.75-4.9 1.12-1.38.27-2.74.55-4.12.82-.97.18-1.94.4-2.86.67-.73.25-1.46.5-2.2.72-1 .38-1.1.42 1.54-.7.16-.06-.3.15-.44.22-.5.24-1 .5-1.45.78-.7.44-1.42.86-2.04 1.36-.13.1-.23.2-.34.3-.12.1-.24.18-.36.27-.67.6-1.34 1.23-1.86 1.92-.16.42-.38.82-.3 1.27 0 .66 0 1.32 0 1.98 0 .7 0 1.43.06 2.14.08.72.27 1.43.53 2.14.3.77.66 1.5 1.05 2.26.14.26.28.54.46.8.07.1.17.2.24.3.2.26.28.56.46.83.24.4.43.85.87 1.2.52.46 1 .95 1.58 1.38.67.54 1.23 1.14 1.92 1.67.8.64 1.63 1.27 2.48 1.88 0 0-2.42 1.1-2.42 1.1z"/><path fill="#fff" stroke="#fff" stroke-width="1.402" d="M26.66 82.55h15.67V97.1H26.66z"/><path fill="#fff" stroke="#fff" stroke-width="1.402" d="M50.47 82.55h15.67V97.1H50.47z"/><path fill="#fff" stroke="#fff" stroke-width="1.402" d="M74.3 82.55h15.66V97.1H74.3z"/><path fill="#fff" stroke="#fff" stroke-width="1.402" d="M98.3 82.55h15.67V97.1H98.3z"/><path fill="#fff" stroke="#fff" stroke-width="1.402" d="M122.11 82.55h15.7V97.1h-15.7z"/><path fill="#fff" stroke="#fff" stroke-width="1.402" d="M145.93 82.55h15.67V97.1h-15.67z"/><path fill="#fff" stroke="#fff" stroke-width="1.402" d="M169.74 82.55h15.67V97.1h-15.66z"/><path fill="#fff" stroke="#fff" stroke-width="1.402" d="M31.95 105.04h15.68v14.55H31.95z"/><path fill="#fff" stroke="#fff" stroke-width="1.402" d="M55.77 105.04h15.67v14.55H55.77z"/><path fill="#fff" stroke="#fff" stroke-width="1.402" d="M79.78 105.04h15.67v14.55H79.78z"/><path fill="#fff" stroke="#fff" stroke-width="1.402" d="M103.6 105.04h15.67v14.55H103.6z"/><path fill="#fff" stroke="#fff" stroke-width="1.402" d="M127.4 105.04h15.68v14.55H127.4z"/><path fill="#fff" stroke="#fff" stroke-width="1.402" d="M151.22 105.04h15.67v14.55H151.2z"/><path fill="#fff" stroke="#fff" stroke-width="1.402" d="M41 126.2H56.7v14.56H41z"/><path fill="#fff" stroke="#fff" stroke-width="1.402" d="M64.82 126.2H80.5v14.56H64.8z"/><path fill="#fff" stroke="#fff" stroke-width="1.402" d="M88.64 126.2h15.67v14.56H88.65z"/><path fill="#fff" stroke="#fff" stroke-width="1.402" d="M112.65 126.2h15.67v14.56h-15.67z"/><path fill="#fff" stroke="#fff" stroke-width="1.402" d="M136.46 126.2h15.67v14.56h-15.67z"/><path fill="#fff" stroke="#fff" stroke-width="1.402" d="M160.28 126.2h15.67v14.56h-15.67z"/><path fill="#fff" stroke="#fff" stroke-width="3.481" d="M58.2 151.34h96.58v14.55H58.2z"/></g></svg>